<?xml version="1.0"?>
<svg version="1.1" xmlns="http://www.w3.org/2000/svg" width="140" height="60" style=""><path fill="#19191a" d="M24.66,47.332q-1.204,0-1.204-0.84q0-1.456,3.71-6.678t4.494-6.426q1.708-2.632,1.708-3.584q0-0.476-0.364-0.588q-0.672-0.28-1.568-0.28q-3.08,0-7.868,3.276q-3.136,2.184-5.194,5.11t-2.058,4.83q0,1.372,1.12,1.568q0.448,0.084,0.896,0.084q1.428,0,2.94-0.924q0.756-0.448,1.904-1.484l0.504-0.168q-0.532,1.008-2.226,2.044t-3.486,1.036q-0.42,0-0.98-0.112t-1.078-0.798t-0.518-1.806q0-4.396,8.288-10.332q1.68-1.204,3.976-2.086t4.172-0.882q0.952,0,1.834,0.364t0.882,1.218t-0.994,2.436t-3.108,4.452t-3.584,5.362t-1.47,3.472q0,0.476,0.392,0.476q0.756,0,2.828-1.568q4.928-3.752,11.592-12.18q1.064-1.344,1.708-1.344q0.252,0,0.252,0.252q0,0.112-0.084,0.28q0.028,0.084,0.028,0.168q0,0.588-0.672,1.596l-3.304,4.676q-2.016,2.912-3.556,5.516t-1.428,3.052l0.504-0.168q1.4-0.784,2.436-1.82q0.364-0.28,0.448-0.28l0.056,0.056q0,0.252-0.756,1.064q-1.96,1.708-2.8,1.708t-0.84-0.532t1.498-3.304t4.802-7.644q-0.56,0.672-1.764,1.988q-6.888,7.056-8.26,8.148q-2.044,1.596-3.808,1.596z M43.17276,37.952q0.756,0,0.756,0.588q0,0.168-0.084,0.336q-2.52,3.5-3.024,5.292q6.524-6.524,7.924-6.524q0.14-0.028,0.252-0.028q0.784,0,0.784,0.7q0,0.14-0.056,0.28t-1.12,1.512q-1.232,1.456-2.086,2.8t-0.854,2.24t0.392,0.896q1.232,0,4.284-3.388q0.056-0.056,0.196-0.252q0.42-0.504,0.504-0.504t0.084,0.28t-0.392,0.728q-3.472,3.948-4.928,3.948q-1.372,0-1.372-1.512t1.12-3.472l1.792-2.912q-1.904,1.4-3.388,3.066t-2.702,3.234t-1.414,1.568q-0.42,0-0.658-0.35t-0.238-0.868t0.364-1.386t0.924-2.1l-1.68,1.764q-0.616,0.616-0.77,0.616t-0.154-0.182t0.224-0.406q1.036-1.036,1.792-1.988q0.728-0.952,2.996-3.64q0.252-0.336,0.532-0.336z M58.05952,35.642q0.378,0.266,0.378,0.63t-0.35,0.63t-0.77,0.266t-0.77-0.308t-0.35-0.7q0-0.784,1.064-0.784q0.42,0,0.798,0.266z M52.19352,47.108q-1.428,0-1.428-1.848q0-1.512,1.652-4.186t2.66-2.702q0.28,0,0.63,0.224t0.35,0.448q-0.14,0.196-0.336,0.434t-0.42,0.518t-0.616,0.798t-0.756,0.994q-2.1,2.716-2.1,3.738t0.7,1.022q0.588,0,1.596-0.644q2.352-1.456,3.724-3.192q0.504-0.644,0.686-0.644t0.182,0.224t-0.644,0.896t-1.022,1.064t-0.518,0.518t-0.518,0.476t-0.574,0.49t-0.56,0.42t-0.644,0.406t-0.644,0.294q-0.588,0.252-1.4,0.252z M62.19428,45.456q-1.792,1.232-2.856,1.232q-1.372,0-1.372-1.512q0-1.176,1.484-2.912q1.316-1.456,2.604-2.184q3.08-1.708,5.012-1.708q0.616,0,0.756,0.476l0,0.896q0.476,0.364,0.476,0.462t-0.084,0.21l-2.212,2.1q-2.1,2.156-2.884,3.948q0.168-0.056,0.924-0.056t1.176,0.658t0.42,1.302q0,1.344-1.176,3.164q-1.288,2.044-2.8,2.044q-1.456,0-1.456-2.156q0-1.316,0.7-2.968z M66.39428,39.772q-1.428,0-4.298,1.862t-3.262,3.794q-0.028,0.084-0.028,0.168q0,0.532,0.672,0.532q1.4,0,3.752-2.436l3.528-3.752q-0.056-0.168-0.364-0.168z M62.83828,47.052q-0.532,0.84-1.148,2.408t-0.616,2.128t0.224,0.994t0.616,0.434q1.036,0,1.82-1.792t0.784-2.688t-0.392-1.176t-1.288-0.308z M77.12304,46.968q-0.14,0.028-0.602,0.028t-0.924-0.364t-0.462-0.938t0.21-1.274t0.294-1.064q-3.22,3.752-5.04,3.752q-1.148,0-1.26-1.428l0-0.196q0-1.204,1.456-3.248q-0.812,0.728-1.652,1.68q-0.112,0.112-0.28,0.112q-0.112,0-0.112-0.14t0.252-0.476l3.864-4.536q0.728-0.84,1.484-0.84t0.756,0.504q0,0.196-0.168,0.364q-1.12,1.036-2.814,3.444t-1.694,3.556q0,0.504,0.336,0.504q1.176,0,3.416-2.324q0.784-0.784,2.912-3.458t2.8-2.674q1.008,0,1.008,0.784q0,0.28-1.176,1.624q-1.596,1.932-2.436,3.15t-0.84,1.974t0.42,0.756q0.196,0,0.448-0.112q1.932-0.84,4.62-3.92q0.168-0.196,0.336-0.196t0.168,0.182t-0.196,0.406q-1.204,1.4-2.828,2.814t-2.296,1.554z M83.8478,47.164q-0.308,0-0.56-0.084q-1.792-0.504-1.792-2.016q0-1.96,2.464-4.536t4.424-2.576q0.644,0,1.05,0.35t0.406,0.854q0,1.568-2.366,2.996t-3.85,1.428q-0.224,0-0.392-0.056q-0.42,0.756-0.42,1.596q0,1.456,1.386,1.456t3.598-1.876q1.708-1.372,2.912-2.912q0.252-0.336,0.434-0.336t0.182,0.168t-0.224,0.476q-1.512,1.988-3.64,3.528t-3.612,1.54z M89.1398,39.1q0-0.336-0.714-0.336t-2.03,1.092q-1.764,1.456-2.744,3.052q0.168,0.056,0.364,0.056q1.064,0,2.842-1.134t2.226-2.478q0.056-0.14,0.056-0.252z"/><path fill="#46a2e3" d=""/></svg>
