<svg width="286.45375976562497px" height="96.8076171875px" xmlns="http://www.w3.org/2000/svg" viewBox="106.77312011718752 -3.40380859375 286.45375976562497 156.8076171875" style="background: rgba(0, 0, 0, 0);" preserveAspectRatio="xMidYMid"><defs><filter id="editing-metal-beveled"><feGaussianBlur stdDeviation="4" in="SourceAlpha" result="blur"></feGaussianBlur><feSpecularLighting surfaceScale="5" specularConstant="0.8" specularExponent="7.5" lighting-color="#fff" in="blur" result="specular"><fePointLight x="-250" y="-50" z="300"></fePointLight></feSpecularLighting><feComposite operator="in" in="specular" in2="SourceAlpha" result="comp"></feComposite><feComposite in="SourceGraphic" in2="comp" operator="arithmetic" k1="0" k2="1" k3="1" k4="0"></feComposite></filter></defs><g filter="url(#editing-metal-beveled)"><g transform="translate(154.3196917772293, 114.27999877929688)"><path d="M9.12 2.56L9.12 2.56L9.12 2.56Q3.44 2.56 3.44-4.80L3.44-4.80L3.44-4.80Q3.44-11.52 10.08-25.12L10.08-25.12L10.08-25.12Q13.68-32.56 14.36-34.12L14.36-34.12L14.36-34.12Q15.04-35.68 14.40-35.60L14.40-35.60L14.40-35.60Q13.76-35.44 12.56-34.56L12.56-34.56L12.56-34.56Q6.32-29.28 1.68-28.96L1.68-28.96L1.68-28.96Q0.88-28.88 0.88-29.36L0.88-29.36L0.88-29.36Q1.04-30.08 1.92-30.24L1.92-30.24L1.92-30.24Q5.04-30.56 11.24-35.56L11.24-35.56L11.24-35.56Q17.44-40.56 18.72-42.96L18.72-42.96L18.72-42.96Q19.04-43.92 21.76-43.92L21.76-43.92L21.76-43.92Q23.84-43.76 23.76-42.96L23.76-42.96L23.76-42.96Q10-19.76 8.16-9.84L8.16-9.84L8.16-9.84Q7.76-7.60 7.76-5.84L7.76-5.84L7.76-5.84Q7.76-0.24 11.76-0.24L11.76-0.24L11.76-0.24Q18.32-0.24 31.12-12.64L31.12-12.64L31.12-12.64Q36.48-47.52 48.24-47.52L48.24-47.52L48.24-47.52Q52.40-47.52 53.44-44.80L53.44-44.80L53.44-44.80Q53.92-43.60 53.92-42.28L53.92-42.28L53.92-42.28Q53.92-40.96 53.36-39.52L53.36-39.52L53.36-39.52Q52.08-35.28 49.16-30.84L49.16-30.84L49.16-30.84Q46.24-26.40 41-20.20L41-20.20L41-20.20Q35.76-14 34.80-12.72L34.80-12.72L34.80-12.72Q33.68-7.04 33.36 1.60L33.36 1.60L33.36 1.60Q33.36 2.08 33.36 2.48L33.36 2.48L33.36 2.48Q33.36 10.08 36 13.28L36 13.28L36 13.28Q37.12 14.56 38.12 14.56L38.12 14.56L38.12 14.56Q39.12 14.56 39.92 13.60L39.92 13.60L39.92 13.60Q40.32 12.96 40.92 12.36L40.92 12.36L40.92 12.36Q41.52 11.76 41.88 11.96L41.88 11.96L41.88 11.96Q42.24 12.16 42 12.96L42 12.96L42 12.96Q41.20 14.24 40.96 14.48L40.96 14.48L40.96 14.48Q39.68 16.08 36.48 16.08L36.48 16.08L36.48 16.08Q36.24 16.08 35.92 16.08L35.92 16.08L35.92 16.08Q31.28 16 30 8.24L30 8.24L30 8.24Q29.68 5.76 29.68 1.56L29.68 1.56L29.68 1.56Q29.68-2.64 30.72-9.76L30.72-9.76L30.72-9.76Q17.92 2.56 9.12 2.56ZM50.88-40.80L50.88-40.80L50.88-40.80Q51.28-42.24 51.28-43.44L51.28-43.44L51.28-43.44Q51.28-44.64 50.76-45.12L50.76-45.12L50.76-45.12Q50.24-45.60 49.76-45.60L49.76-45.60L49.76-45.60Q48.64-45.60 46.80-43.60L46.80-43.60L46.80-43.60Q39.52-35.52 36.08-17.84L36.08-17.84L36.08-17.84Q40.56-22.08 45-28.72L45-28.72L45-28.72Q49.44-35.36 50.88-40.80ZM67.52-22.72L67.52-22.72L67.52-22.72Q69.36-22.72 69.36-20.76L69.36-20.76L69.36-20.76Q69.36-18.80 67.52-15.36L67.52-15.36L67.52-15.36Q65.68-11.92 64.80-9.76L64.80-9.76L64.80-9.76Q63.28-6.08 63.28-3.88L63.28-3.88L63.28-3.88Q63.28-1.68 63.92-0.96L63.92-0.96L63.92-0.96Q65.12 0.32 67.20-0.84L67.20-0.84L67.20-0.84Q69.28-2 73-5.32L73-5.32L73-5.32Q76.72-8.64 78.96-11.84L78.96-11.84L78.96-11.84Q79.28-12.24 79.72-12.04L79.72-12.04L79.72-12.04Q80.16-11.84 80.16-11.64L80.16-11.64L80.16-11.64Q80.16-11.44 80-11.20L80-11.20L80-11.20Q78.80-9.04 75.68-5.68L75.68-5.68L75.68-5.68Q72.56-2.32 69.68-0.28L69.68-0.28L69.68-0.28Q66.80 1.76 64 1.76L64 1.76L64 1.76Q61.28 1.68 60.16 0.52L60.16 0.52L60.16 0.52Q59.04-0.64 59.04-2.40L59.04-2.40L59.04-2.40Q59.04-4.16 59.36-5.80L59.36-5.80L59.36-5.80Q59.68-7.44 60.56-9.60L60.56-9.60L60.56-9.60Q62-13.04 63.08-14.96L63.08-14.96L63.08-14.96Q64.16-16.88 64.16-17.48L64.16-17.48L64.16-17.48Q64.16-18.08 63.52-18.08L63.52-18.08L63.52-18.08Q62.24-18.08 58.64-14.96L58.64-14.96L58.64-14.96Q56.16-12.64 51.32-6.20L51.32-6.20L51.32-6.20Q46.48 0.24 45.84 0.64L45.84 0.64L45.84 0.64Q42.96 2.08 42.24 2.08L42.24 2.08L42.24 2.08Q41.52 2.08 41.52 1.84L41.52 1.84L41.52 1.84Q41.52 1.60 41.68 1.16L41.68 1.16L41.68 1.16Q41.84 0.72 43.24-3.20L43.24-3.20L43.24-3.20Q44.64-7.12 46.28-11.80L46.28-11.80L46.28-11.80Q47.92-16.48 48.28-17.44L48.28-17.44L48.28-17.44Q48.64-18.40 48.76-19.08L48.76-19.08L48.76-19.08Q48.88-19.76 49.04-20.24L49.04-20.24L49.04-20.24Q49.20-20.72 49.64-21.32L49.64-21.32L49.64-21.32Q50.08-21.92 50.80-21.96L50.80-21.96L50.80-21.96Q51.52-22 52.64-21.80L52.64-21.80L52.64-21.80Q53.76-21.60 53.76-20.80L53.76-20.80L53.76-20.80Q53.76-20.24 52.88-18.36L52.88-18.36L52.88-18.36Q52-16.48 47.84-5.44L47.84-5.44L47.84-5.44Q50.72-8.96 55.12-13.56L55.12-13.56L55.12-13.56Q59.52-18.16 62.56-20.56L62.56-20.56L62.56-20.56Q65.60-22.72 67.52-22.72ZM85.68-22.16L85.68-22.16L85.68-22.16Q87.68-22.16 88.08-20.88L88.08-20.88L88.08-20.88Q88.24-20.16 87.88-19.48L87.88-19.48L87.88-19.48Q87.52-18.80 87.36-18.40L87.36-18.40L87.36-18.40Q87.20-18 87.12-17.76L87.12-17.76L87.12-17.76Q86.72-16.96 86.32-16.24L86.32-16.24L86.32-16.24Q81.76-7.12 81.52-4.64L81.52-4.64L81.52-4.64Q81.44-3.92 81.44-2.80L81.44-2.80L81.44-2.80Q81.44-1.68 82.08-0.96L82.08-0.96L82.08-0.96Q83.20 0.32 85.28-0.80L85.28-0.80L85.28-0.80Q87.36-1.92 91.08-5.28L91.08-5.28L91.08-5.28Q94.80-8.64 97.12-11.84L97.12-11.84L97.12-11.84Q97.44-12.24 97.84-12.04L97.84-12.04L97.84-12.04Q98.24-11.84 98.24-11.64L98.24-11.64L98.24-11.64Q98.24-11.44 98.08-11.20L98.08-11.20L98.08-11.20Q96.88-9.04 93.76-5.68L93.76-5.68L93.76-5.68Q88.64-0.16 85.20 1.12L85.20 1.12L85.20 1.12Q83.20 1.84 81.84 1.84L81.84 1.84L81.84 1.84Q78.64 1.84 77.60-1.20L77.60-1.20L77.60-1.20Q77.44-1.76 77.44-2.56L77.44-2.56L77.44-2.56Q77.44-5.36 80-11.04L80-11.04L80-11.04Q79.60-10.16 76.88-7.04L76.88-7.04L76.88-7.04Q76.16-6.24 75.76-7.04L75.76-7.04L75.76-7.04Q75.68-7.20 75.68-7.48L75.68-7.48L75.68-7.48Q75.68-7.76 76-8.16L76-8.16L76-8.16Q79.92-13.04 82.16-16.40L82.16-16.40L82.16-16.40Q82-16.80 82.32-17.44L82.32-17.44L82.32-17.44Q83.92-21.92 85.12-22.16L85.12-22.16L85.12-22.16Q85.36-22.16 85.68-22.16ZM92-32.80L92-32.80L91.36-30.24L91.36-30.24Q91.36-29.52 90.32-27.92L90.32-27.92L90.32-27.92Q89.28-26.32 88.72-26.32L88.72-26.32L88.72-26.32Q85.28-26.32 85.28-28L85.28-28L85.28-28Q85.28-28.32 88.72-30.96L88.72-30.96L90.08-32L90.08-32Q91.36-33.12 91.68-33.12L91.68-33.12L91.68-33.12Q92-33.12 92-32.80ZM99.12-14.56L99.12-14.56Q102.48-17.76 106.16-20.04L106.16-20.04L106.16-20.04Q109.84-22.32 111.64-22.84L111.64-22.84L111.64-22.84Q113.44-23.36 116.60-23.36L116.60-23.36L116.60-23.36Q119.76-23.36 121.60-21.92L121.60-21.92L123.68-26.64L123.68-26.64Q124.72-27.84 126.88-27.84L126.88-27.84L126.88-27.84Q129.52-27.84 129.52-26.68L129.52-26.68L129.52-26.68Q129.52-25.52 126.80-23.04L126.80-23.04L126.80-23.04Q123.36-20.32 117.28-1.52L117.28-1.52L117.28-1.52Q118.08-0.08 119.24-0.08L119.24-0.08L119.24-0.08Q120.40-0.08 122.12-1L122.12-1L122.12-1Q123.84-1.92 127.56-5.28L127.56-5.28L127.56-5.28Q131.28-8.64 133.60-11.84L133.60-11.84L133.60-11.84Q133.92-12.24 134.32-12.04L134.32-12.04L134.32-12.04Q134.72-11.84 134.72-11.64L134.72-11.64L134.72-11.64Q134.72-11.44 134.56-11.20L134.56-11.20L134.56-11.20Q133.36-9.04 130.24-5.68L130.24-5.68L130.24-5.68Q127.12-2.32 124.16-0.24L124.16-0.24L124.16-0.24Q121.76 1.76 118.56 1.76L118.56 1.76L118.56 1.76Q118.32 1.76 118.08 1.76L118.08 1.76L118.08 1.76Q119.04 6 119.52 11.36L119.52 11.36L119.52 11.36Q120 16.72 120 18.52L120 18.52L120 18.52Q120 20.32 120 20.96L120 20.96L120 20.96Q119.44 26.32 117.24 28.68L117.24 28.68L117.24 28.68Q115.04 31.04 112.72 31.04L112.72 31.04L112.72 31.04Q109.52 31.04 107.28 27.76L107.28 27.76L107.28 27.76Q106 25.92 106 22.24L106 22.24L106 22.24Q106 18.24 109.28 9.28L109.28 9.28L109.28 9.28Q110.24 6.72 110.92 4.80L110.92 4.80L110.92 4.80Q111.60 2.88 114.88-5.40L114.88-5.40L114.88-5.40Q118.16-13.68 118.24-14L118.24-14L118.24-14Q105.44 0.88 100.08 0.88L100.08 0.88L100.08 0.88Q98.80 0.88 97.32 0.12L97.32 0.12L97.32 0.12Q95.84-0.64 94.80-2.08L94.80-2.08L94.80-2.08Q93.76-3.52 93.76-5.12L93.76-5.12L93.76-5.12Q93.76-9.52 99.12-14.56L99.12-14.56ZM119.84-17.92L120.96-20.64L120.96-20.64Q120-21.12 117.60-21.12L117.60-21.12L117.60-21.12Q115.20-21.12 111.40-19.16L111.40-19.16L111.40-19.16Q107.60-17.20 104.24-14.24L104.24-14.24L104.24-14.24Q101.44-11.60 99.32-8.28L99.32-8.28L99.32-8.28Q97.20-4.96 97.20-3.44L97.20-3.44L97.20-3.44Q97.20-0.48 98.88-0.48L98.88-0.48L98.88-0.48Q100.56-0.48 104-3.20L104-3.20L104-3.20Q112.88-10.48 119.84-17.92L119.84-17.92ZM116.56 2.48L116.56 2.48L116.56 2.48Q116.56 1.84 116.32 1.84L116.32 1.84L116.32 1.84Q116.08 1.84 115.84 2.56L115.84 2.56L115.84 2.56Q115.60 3.28 114.28 6.52L114.28 6.52L114.28 6.52Q112.96 9.76 112.32 11.52L112.32 11.52L112.32 11.52Q110.16 17.20 109.88 19.76L109.88 19.76L109.88 19.76Q109.60 22.32 109.60 23.40L109.60 23.40L109.60 23.40Q109.60 24.48 109.68 25.44L109.68 25.44L109.68 25.44Q109.92 28.88 112.24 28.88L112.24 28.88L112.24 28.88Q118.08 28.88 118.08 17.36L118.08 17.36L118.08 17.36Q118.08 11.44 116.56 2.48ZM170.24-11.20L170.24-11.20Q169.04-9.04 165.92-5.68L165.92-5.68L165.92-5.68Q162.80-2.32 160.32-0.48L160.32-0.48L160.32-0.48Q157.12 1.84 153.36 1.84L153.36 1.84L153.36 1.84Q152.64 1.84 151.48 1.16L151.48 1.16L151.48 1.16Q150.32 0.48 149.92-0.80L149.92-0.80L149.92-0.80Q149.52-2.08 149.52-3.28L149.52-3.28L149.52-3.28Q149.52-7.44 151.12-11.52L151.12-11.52L151.12-11.52Q150.88-11.36 148.92-8.12L148.92-8.12L148.92-8.12Q146.96-4.88 144.12-2L144.12-2L144.12-2Q141.28 0.88 138.40 0.88L138.40 0.88L138.40 0.88Q137.04 0.88 135.28 0.16L135.28 0.16L135.28 0.16Q132.08-1.28 132.08-5.12L132.08-5.12L132.08-5.12Q132.08-9.84 135.32-14.84L135.32-14.84L135.32-14.84Q138.56-19.84 139.44-20.16L139.44-20.16L139.44-20.16Q140.64-20.48 141.72-20.48L141.72-20.48L141.72-20.48Q142.80-20.48 143.92-20.04L143.92-20.04L143.92-20.04Q145.04-19.60 143.60-18.56L143.60-18.56L143.60-18.56Q138.08-13.52 135.76-7.36L135.76-7.36L135.76-7.36Q134.88-4.96 134.88-3.32L134.88-3.32L134.88-3.32Q134.88-1.68 135.72-1.20L135.72-1.20L135.72-1.20Q136.56-0.72 137.36-0.72L137.36-0.72L137.36-0.72Q139.28-0.72 142.60-3.40L142.60-3.40L142.60-3.40Q145.92-6.08 151.76-14.56L151.76-14.56L151.76-14.56Q152.56-15.76 154.56-19.24L154.56-19.24L154.56-19.24Q156.56-22.72 156.96-23.36L156.96-23.36L156.96-23.36Q158.24-23.36 159.96-22.76L159.96-22.76L159.96-22.76Q161.68-22.16 161.12-21.20L161.12-21.20L161.12-21.20Q157.28-14.80 155.72-11.76L155.72-11.76L155.72-11.76Q154.16-8.72 153.60-4.64L153.60-4.64L153.60-4.64Q153.52-3.92 153.52-2.80L153.52-2.80L153.52-2.80Q153.52-1.68 154.16-0.96L154.16-0.96L154.16-0.96Q155.36 0.32 157.48-0.84L157.48-0.84L157.48-0.84Q159.60-2 163.28-5.32L163.28-5.32L163.28-5.32Q166.96-8.64 169.20-11.84L169.20-11.84L169.20-11.84Q169.52-12.24 169.96-12.04L169.96-12.04L169.96-12.04Q170.40-11.84 170.40-11.64L170.40-11.64L170.40-11.64Q170.40-11.44 170.24-11.20L170.24-11.20ZM186.72-23.28L186.72-23.28L186.72-23.28Q191.04-23.28 191.04-19.12L191.04-19.12L191.04-19.12Q191.04-16.96 189.84-15.60L189.84-15.60L189.84-15.60Q187.84-12.64 183.36-10.44L183.36-10.44L183.36-10.44Q178.88-8.24 175.76-8L175.76-8L175.76-8Q174.64-7.92 174.56-8.64L174.56-8.64L174.56-8.64Q174.48-8.96 174.76-9.04L174.76-9.04L174.76-9.04Q175.04-9.12 175.20-9.12L175.20-9.12L175.20-9.12Q177.04-9.28 179.92-10.88L179.92-10.88L179.92-10.88Q185.28-13.76 187.76-16.80L187.76-16.80L187.76-16.80Q188.80-18.24 188.80-19.56L188.80-19.56L188.80-19.56Q188.80-20.88 187.52-20.88L187.52-20.88L187.52-20.88Q186.48-20.88 184.72-20L184.72-20L184.72-20Q180.96-18.24 176.80-13.88L176.80-13.88L176.80-13.88Q172.64-9.52 171.36-5.36L171.36-5.36L171.36-5.36Q170.96-4.08 170.96-2.84L170.96-2.84L170.96-2.84Q170.96-1.60 172-0.48L172-0.48L172-0.48Q173.04 0.64 175.20 0.64L175.20 0.64L175.20 0.64Q177.60 0.64 180.72-0.64L180.72-0.64L180.72-0.64Q189.76-4.32 194.64-11.76L194.64-11.76L194.64-11.76Q195.12-12.40 195.52-12L195.52-12L195.52-12Q195.84-11.84 195.84-11.60L195.84-11.60L195.84-11.60Q195.84-11.36 195.60-11.04L195.60-11.04L195.60-11.04Q193.20-7.04 189.52-3.92L189.52-3.92L189.52-3.92Q182.40 2.16 175.68 2.16L175.68 2.16L175.68 2.16Q169.92 2.16 167.60-1.28L167.60-1.28L167.60-1.28Q166.72-2.64 166.72-4.56L166.72-4.56L166.72-4.56Q166.72-6.48 167.76-9.12L167.76-9.12L167.76-9.12Q169.76-13.68 176.32-18.48L176.32-18.48L176.32-18.48Q182.88-23.28 186.72-23.28Z" fill="#444"></path></g></g><style>text {
  font-size: 64px;
  font-family: Arial Black;
  dominant-baseline: central;
  text-anchor: middle;
}</style></svg>